<svg width="20" height="20" viewBox="0 0 20 20" fill="none" xmlns="http://www.w3.org/2000/svg">
<g clip-path="url(#clip0_1820_827)">
<path d="M18.5991 3.69251L7.08331 15.2075C7.00589 15.2852 6.91388 15.3469 6.81256 15.389C6.71124 15.4311 6.60261 15.4527 6.4929 15.4527C6.38318 15.4527 6.27455 15.4311 6.17323 15.389C6.07192 15.3469 5.9799 15.2852 5.90248 15.2075L1.44915 10.75C1.37172 10.6723 1.27971 10.6106 1.17839 10.5685C1.07707 10.5264 0.968441 10.5048 0.858729 10.5048C0.749018 10.5048 0.640386 10.5264 0.539067 10.5685C0.437748 10.6106 0.345737 10.6723 0.268312 10.75V10.75C0.190582 10.8274 0.128905 10.9194 0.0868199 11.0208C0.0447352 11.1221 0.0230713 11.2307 0.0230713 11.3404C0.0230713 11.4501 0.0447352 11.5588 0.0868199 11.6601C0.128905 11.7614 0.190582 11.8534 0.268312 11.9308L4.72331 16.385C5.19327 16.8541 5.83014 17.1175 6.49415 17.1175C7.15815 17.1175 7.79502 16.8541 8.26498 16.385L19.78 4.87251C19.8576 4.7951 19.9192 4.70314 19.9612 4.6019C20.0032 4.50065 20.0248 4.39212 20.0248 4.28251C20.0248 4.17289 20.0032 4.06436 19.9612 3.96312C19.9192 3.86188 19.8576 3.76992 19.78 3.69251C19.7026 3.61478 19.6105 3.5531 19.5092 3.51101C19.4079 3.46893 19.2993 3.44727 19.1896 3.44727C19.0799 3.44727 18.9712 3.46893 18.8699 3.51101C18.7686 3.5531 18.6766 3.61478 18.5991 3.69251Z" fill="#3B3748"/>
</g>
<defs>
<clipPath id="clip0_1820_827">
<rect width="20" height="20" fill="white"/>
</clipPath>
</defs>
</svg>
