<svg width="22" height="21" viewBox="0 0 22 21" fill="none" xmlns="http://www.w3.org/2000/svg">
<path d="M19 9.82C18.7348 9.82 18.4804 9.92536 18.2929 10.1129C18.1054 10.3004 18 10.5548 18 10.82V18C18 18.2652 17.8946 18.5196 17.7071 18.7071C17.5196 18.8946 17.2652 19 17 19H3C2.73478 19 2.48043 18.8946 2.29289 18.7071C2.10536 18.5196 2 18.2652 2 18V5C2 4.73478 2.10536 4.48043 2.29289 4.29289C2.48043 4.10536 2.73478 4 3 4H11.18C11.4452 4 11.6996 3.89464 11.8871 3.70711C12.0746 3.51957 12.18 3.26522 12.18 3C12.18 2.73478 12.0746 2.48043 11.8871 2.29289C11.6996 2.10536 11.4452 2 11.18 2H3C2.20435 2 1.44129 2.31607 0.87868 2.87868C0.316071 3.44129 0 4.20435 0 5V18C0 18.7956 0.316071 19.5587 0.87868 20.1213C1.44129 20.6839 2.20435 21 3 21H17C17.7956 21 18.5587 20.6839 19.1213 20.1213C19.6839 19.5587 20 18.7956 20 18V10.82C20 10.5548 19.8946 10.3004 19.7071 10.1129C19.5196 9.92536 19.2652 9.82 19 9.82ZM21.92 0.62C21.8185 0.375651 21.6243 0.181475 21.38 0.0799999C21.2598 0.028759 21.1307 0.00157999 21 0H15C14.7348 0 14.4804 0.105357 14.2929 0.292893C14.1054 0.48043 14 0.734784 14 1C14 1.26522 14.1054 1.51957 14.2929 1.70711C14.4804 1.89464 14.7348 2 15 2H18.59L10.29 10.29C10.1963 10.383 10.1219 10.4936 10.0711 10.6154C10.0203 10.7373 9.9942 10.868 9.9942 11C9.9942 11.132 10.0203 11.2627 10.0711 11.3846C10.1219 11.5064 10.1963 11.617 10.29 11.71C10.383 11.8037 10.4936 11.8781 10.6154 11.9289C10.7373 11.9797 10.868 12.0058 11 12.0058C11.132 12.0058 11.2627 11.9797 11.3846 11.9289C11.5064 11.8781 11.617 11.8037 11.71 11.71L20 3.41V7C20 7.26522 20.1054 7.51957 20.2929 7.70711C20.4804 7.89464 20.7348 8 21 8C21.2652 8 21.5196 7.89464 21.7071 7.70711C21.8946 7.51957 22 7.26522 22 7V1C21.9984 0.869323 21.9712 0.740222 21.92 0.62Z" fill="#3B3748"/>
</svg>
