<svg width="20" height="19" viewBox="0 0 20 19" fill="none" xmlns="http://www.w3.org/2000/svg">
<path d="M14.5835 0.597412C13.6451 0.612008 12.7272 0.873956 11.9224 1.3568C11.1177 1.83965 10.4546 2.5263 10.0001 3.34741C9.54566 2.5263 8.88257 1.83965 8.07782 1.3568C7.27308 0.873956 6.35517 0.612008 5.41679 0.597412C3.92091 0.662404 2.51155 1.31679 1.49661 2.41761C0.481678 3.51842 -0.0563308 4.97618 0.000128002 6.47241C0.000128002 10.2616 3.98846 14.3999 7.33346 17.2057C8.08031 17.8334 9.02459 18.1774 10.0001 18.1774C10.9757 18.1774 11.9199 17.8334 12.6668 17.2057C16.0118 14.3999 20.0001 10.2616 20.0001 6.47241C20.0566 4.97618 19.5186 3.51842 18.5036 2.41761C17.4887 1.31679 16.0793 0.662404 14.5835 0.597412ZM11.596 15.9307C11.1493 16.3069 10.5841 16.5132 10.0001 16.5132C9.41617 16.5132 8.85097 16.3069 8.40429 15.9307C4.12263 12.3382 1.66679 8.89158 1.66679 6.47241C1.60983 5.41801 1.9721 4.38385 2.6746 3.5955C3.37709 2.80714 4.36282 2.32854 5.41679 2.26408C6.47077 2.32854 7.45649 2.80714 8.15899 3.5955C8.86149 4.38385 9.22376 5.41801 9.16679 6.47241C9.16679 6.69343 9.25459 6.90539 9.41087 7.06167C9.56715 7.21795 9.77911 7.30575 10.0001 7.30575C10.2211 7.30575 10.4331 7.21795 10.5894 7.06167C10.7457 6.90539 10.8335 6.69343 10.8335 6.47241C10.7765 5.41801 11.1388 4.38385 11.8413 3.5955C12.5438 2.80714 13.5295 2.32854 14.5835 2.26408C15.6374 2.32854 16.6232 2.80714 17.3257 3.5955C18.0282 4.38385 18.3904 5.41801 18.3335 6.47241C18.3335 8.89158 15.8776 12.3382 11.596 15.9274V15.9307Z" fill="#3B3748"/>
</svg>
