<svg width="153" height="48" viewBox="0 0 153 48" fill="none" xmlns="http://www.w3.org/2000/svg">
<path d="M0 24C0 10.7452 10.7452 0 24 0H129C142.255 0 153 10.7452 153 24C153 37.2548 142.255 48 129 48H24C10.7452 48 0 37.2548 0 24Z" fill="#7100FF"/>
<path d="M25.1005 29H26.9905V21.53H31.4005V29H33.2905V19.82H25.1005V29ZM39.684 29.18C42.384 29.18 44.454 27.11 44.454 24.41C44.454 21.71 42.384 19.64 39.684 19.64C36.984 19.64 34.914 21.71 34.914 24.41C34.914 27.11 36.984 29.18 39.684 29.18ZM39.684 27.47C38.064 27.47 36.894 26.3 36.894 24.41C36.894 22.52 38.064 21.35 39.684 21.35C41.304 21.35 42.474 22.52 42.474 24.41C42.474 26.3 41.304 27.47 39.684 27.47ZM45.0812 30.98H46.7912V29H53.3612V30.98H55.0712V27.29H54.1712L52.1012 19.82H48.0512L45.9812 27.29H45.0812V30.98ZM47.9612 27.29L49.4912 21.53H50.6612L52.1912 27.29H47.9612ZM55.8039 30.98H57.5139V29H64.0839V30.98H65.7939V27.29H64.8939L62.8239 19.82H58.7739L56.7039 27.29H55.8039V30.98ZM58.6839 27.29L60.2139 21.53H61.3839L62.9139 27.29H58.6839ZM71.1116 29.18C74.7116 29.18 75.7016 26.21 75.7016 26.21H73.7216C73.7216 26.21 73.0016 27.47 71.1116 27.47C69.7616 27.47 68.5916 26.57 68.3216 25.04H75.7916V24.41C75.7916 21.71 73.7216 19.64 71.1116 19.64C68.5016 19.64 66.4316 21.71 66.4316 24.41C66.4316 27.11 68.5016 29.18 71.1116 29.18ZM68.4116 23.51C68.6816 22.16 69.8516 21.35 71.1116 21.35C72.7316 21.35 73.6316 22.43 73.8116 23.51H68.4116ZM77.413 32.42H79.303V27.83H79.393C79.393 27.83 80.383 29.18 82.273 29.18C84.703 29.18 86.593 27.29 86.593 24.41C86.593 21.53 84.703 19.64 82.273 19.64C80.383 19.64 79.393 20.99 79.393 20.99H79.303V19.82H77.413V32.42ZM81.913 27.47C80.383 27.47 79.303 26.39 79.303 24.41C79.303 22.43 80.383 21.35 81.913 21.35C83.533 21.35 84.613 22.43 84.613 24.41C84.613 26.39 83.533 27.47 81.913 27.47ZM86.8644 29H89.1144L91.8144 25.13H93.0744V29H94.9644V25.13H96.2244L98.9244 29H101.174L97.7544 24.05L100.904 19.82H98.7444L96.1344 23.42H94.9644V19.82H93.0744V23.42H91.9044L89.2944 19.82H87.1344L90.2844 24.05L86.8644 29ZM105.767 29.18C107.657 29.18 108.647 27.74 108.647 27.74H108.737V29H110.627V19.82H108.737V20.99H108.647C108.647 20.99 107.657 19.64 105.767 19.64C103.337 19.64 101.447 21.53 101.447 24.41C101.447 27.29 103.337 29.18 105.767 29.18ZM106.127 27.47C104.507 27.47 103.427 26.39 103.427 24.41C103.427 22.43 104.507 21.35 106.127 21.35C107.657 21.35 108.737 22.43 108.737 24.41C108.737 26.39 107.657 27.47 106.127 27.47ZM114.85 29H116.74V21.53H119.8V19.82H111.79V21.53H114.85V29ZM120.972 29H125.112C127.272 29 128.622 27.65 128.622 25.94C128.622 24.23 127.272 22.88 125.112 22.88H122.862V19.82H120.972V29ZM122.862 27.29V24.59H125.112C126.102 24.59 126.642 25.13 126.642 25.94C126.642 26.75 126.102 27.29 125.112 27.29H122.862Z" fill="#FCFAF7"/>
</svg>
