<svg width="12" height="20" viewBox="0 0 12 20" fill="none" xmlns="http://www.w3.org/2000/svg">
<path d="M7.76898 19.2944L11.0006 16.0619C11.1569 15.9056 11.2446 15.6937 11.2446 15.4727C11.2446 15.2518 11.1569 15.0399 11.0006 14.8836C10.8444 14.7274 10.6325 14.6396 10.4115 14.6396C10.1905 14.6396 9.97859 14.7274 9.82232 14.8836L6.85815 17.8461L6.85815 0.857747C6.85815 0.636734 6.77035 0.424772 6.61407 0.268492C6.45779 0.112211 6.24583 0.0244141 6.02482 0.0244141C5.8038 0.0244141 5.59184 0.112211 5.43556 0.268492C5.27928 0.424772 5.19148 0.636734 5.19148 0.857747L5.19148 17.8969L2.17898 14.8836C2.10159 14.8061 2.00968 14.7446 1.90852 14.7027C1.80735 14.6608 1.69891 14.6392 1.5894 14.6392C1.47989 14.6392 1.37145 14.6608 1.27028 14.7027C1.16912 14.7446 1.07721 14.8061 0.999815 14.8836C0.843589 15.0399 0.755827 15.2518 0.755827 15.4727C0.755827 15.6937 0.843589 15.9056 0.999815 16.0619L4.23232 19.2952C4.70218 19.7627 5.33804 20.025 6.00082 20.0249C6.6636 20.0247 7.29934 19.7621 7.76898 19.2944Z" fill="white"/>
</svg>
