<svg width="152" height="20" viewBox="0 0 152 20" fill="none" xmlns="http://www.w3.org/2000/svg">
<path fill-rule="evenodd" clip-rule="evenodd" d="M146.743 15.4563C147.621 17.4583 147.836 17.6316 149.916 17.9125C150.083 18.026 149.97 18.8986 149.91 18.8866C149.784 18.8824 149.642 18.877 149.484 18.8711C148.749 18.8434 147.672 18.8029 146.324 18.8029C145.285 18.8029 144.189 18.8366 143.387 18.8612C142.925 18.8754 142.561 18.8866 142.362 18.8866C142.236 18.5226 142.236 18.1271 142.362 17.7631C142.898 17.704 143.427 17.6 143.946 17.4523C144.076 17.3934 144.18 17.2899 144.241 17.1605C144.301 17.0312 144.313 16.8846 144.274 16.7471C143.922 15.5519 143.211 13.6634 142.768 12.5638C142.745 12.5103 142.707 12.4639 142.66 12.4293C142.613 12.3947 142.558 12.3731 142.5 12.3666C142.004 12.3367 140.749 12.3367 139.733 12.3367C137.982 12.3367 137.82 12.3367 137.521 12.3666C137.451 12.3803 137.385 12.4101 137.328 12.4537C137.271 12.4972 137.224 12.5533 137.193 12.6176C137.091 12.9046 136.984 13.1991 136.878 13.4924C136.389 14.8485 135.908 16.1794 135.908 16.6216C135.908 17.1595 136.015 17.3567 136.81 17.5539C137.163 17.6376 137.766 17.7213 138.256 17.781C138.352 18.1541 138.325 18.5481 138.179 18.9045C137.984 18.9045 137.655 18.8941 137.23 18.8805C136.453 18.8558 135.354 18.8209 134.169 18.8209C133.953 18.8209 133.597 18.8266 133.186 18.8332C132.145 18.8499 130.754 18.8723 130.416 18.8209C129.746 18.7668 129.115 18.4889 128.623 18.032C127.635 17.2131 126.773 15.885 125.042 13.2177C124.815 12.868 124.573 12.4953 124.314 12.0977C123.334 10.6335 122.485 10.4662 121.78 10.4662C121.75 10.4662 121.696 10.5259 121.696 10.5797V16.036C121.726 16.9922 121.888 17.273 122.629 17.4703C122.951 17.5539 123.639 17.6675 124.236 17.7511C124.398 17.8647 124.344 18.7611 124.206 18.8747C123.609 18.8209 121.451 18.791 120.059 18.791C119.565 18.791 118.508 18.8236 117.348 18.8594C115.49 18.9168 113.37 18.9823 112.888 18.9344C112.145 18.8198 111.457 18.4749 110.921 17.9483C110.114 17.1768 108.988 15.2603 108.038 13.644C107.708 13.082 107.399 12.5562 107.133 12.1276C106.23 10.6634 105.824 10.3825 104.485 10.3825C104.461 10.3901 104.44 10.4052 104.425 10.4256C104.41 10.446 104.401 10.4707 104.401 10.4961C104.401 11.2205 104.416 12.3426 104.43 13.429C104.443 14.4487 104.455 15.4371 104.455 16.036C104.485 16.9922 104.646 17.3029 105.387 17.5001C105.716 17.5838 106.314 17.6675 106.911 17.7511C107.103 17.8647 106.995 18.7611 106.858 18.8747C106.597 18.8747 106.074 18.8588 105.483 18.8409C104.718 18.8177 103.839 18.791 103.272 18.791C102.744 18.791 101.936 18.8141 101.169 18.836C100.477 18.8558 99.8177 18.8747 99.4292 18.8747C99.2646 18.5231 99.2348 18.1232 99.3456 17.7511L100.654 17.5539C101.718 17.3567 101.832 16.8248 101.885 15.3607V10.3287C100.385 10.3287 99.7579 10.9742 99.1065 11.9841C98.5239 12.8909 97.8418 14.0417 97.1754 15.1658C96.9327 15.5753 96.692 15.9813 96.4591 16.3706C96.3178 16.5477 96.1893 16.7212 96.0651 16.8891C95.4219 17.7578 94.8905 18.4756 93.2678 18.7611C92.1455 18.8941 91.0146 18.9401 89.8853 18.8986C89.7596 18.5346 89.7596 18.139 89.8853 17.775C92.0128 17.4105 92.6403 17.0997 93.4291 16.1734C93.687 15.8626 94.4115 14.7761 95.0902 13.7581C95.6382 12.9362 96.1565 12.1589 96.3754 11.8706C97.224 10.6574 97.6065 10.2929 98.3416 9.87454C98.3532 9.84714 98.3592 9.81766 98.3592 9.78788C98.3592 9.7581 98.3532 9.72863 98.3416 9.70123C97.5049 9.0558 96.9073 7.96216 95.9511 6.0199C94.708 3.74298 94.3794 3.40234 93.5606 3.40234C92.8483 3.43045 92.1507 3.61402 91.5168 3.9402C91.4032 3.99398 91.212 3.68322 91.212 3.59955C91.2632 2.90172 91.4017 2.21307 91.6243 1.54972C91.6936 1.37431 91.8172 1.22564 91.9769 1.12541C92.3451 0.990788 92.7325 0.916135 93.1244 0.904297C94.8395 0.904297 95.7718 2.11148 96.5607 3.79676C97.1855 5.30947 97.933 6.76853 98.7958 8.15937C99.5189 9.11556 100.242 9.28289 101.909 9.28289C101.909 7.59766 101.909 5.24881 101.856 4.05374C101.826 3.30074 101.718 2.87046 100.923 2.70313L99.5069 2.42225C99.3695 2.27882 99.3695 1.43617 99.5607 1.32263C99.7809 1.32263 100.175 1.33605 100.647 1.35215C101.353 1.37623 102.235 1.40629 102.973 1.40629C103.905 1.40629 104.938 1.37267 105.694 1.34805C106.131 1.33384 106.475 1.32263 106.654 1.32263C106.747 1.49556 106.795 1.68847 106.795 1.88439C106.795 2.08031 106.747 2.27322 106.654 2.44615L106.628 2.45068C106.152 2.53199 105.805 2.59109 105.459 2.67324C104.611 2.84058 104.503 3.20512 104.473 4.22107C104.449 5.34459 104.419 7.53785 104.419 9.16935C104.419 9.22313 104.473 9.28289 104.587 9.28289C105.866 9.28289 106.654 9.0558 107.342 8.24304C108.06 7.22478 108.697 6.15175 109.248 5.03383C110.993 1.91427 111.955 0.904297 113.748 0.904297C114.1 0.951135 114.437 1.07566 114.734 1.26884C114.812 1.29275 114.925 1.63339 114.925 1.68717C114.844 2.44984 114.66 3.19783 114.376 3.91031C114.352 4.07765 114.131 4.07765 114.077 4.07765C113.564 3.74451 112.972 3.55089 112.362 3.51588C111.896 3.51588 111.352 4.02386 110.419 5.68524C110.325 5.85221 110.235 6.01054 110.15 6.16086C108.989 8.21111 108.671 8.77298 107.886 9.48011C107.865 9.50312 107.854 9.5329 107.854 9.56378C107.854 9.59465 107.865 9.62443 107.886 9.64744C108.625 10.0843 109.241 10.7011 109.678 11.4403C109.82 11.6606 110.028 12.0025 110.267 12.3965C110.845 13.3493 111.608 14.6064 112.069 15.1814L112.127 15.2551C113.618 17.1594 114.16 17.8513 116.479 17.7392C116.89 17.7187 117.3 17.6708 117.704 17.5958C118.768 17.4284 118.941 17.2671 119.001 15.8029V9.73111C119.001 9.17706 119.007 8.51138 119.013 7.82513C119.025 6.38697 119.038 4.85846 119.001 4.07765C118.971 3.32465 118.864 2.89436 118.069 2.72703C117.853 2.6791 117.598 2.63901 117.308 2.59329C117.091 2.5592 116.854 2.52197 116.599 2.47603C116.523 2.29949 116.492 2.1074 116.506 1.916C116.521 1.72459 116.581 1.53951 116.682 1.37642C116.889 1.37642 117.231 1.38844 117.655 1.40338C118.35 1.42783 119.267 1.46008 120.173 1.46008C121.086 1.46008 122.16 1.42728 122.964 1.40276C123.444 1.38811 123.827 1.37642 124.021 1.37642C124.183 1.48996 124.212 2.36248 124.021 2.49993C123.645 2.55664 123.272 2.63243 122.904 2.72703C122.055 2.89436 121.673 3.18122 121.673 4.27486V9.27692C121.673 9.33668 121.726 9.39047 121.834 9.39047C122.34 9.44241 122.851 9.38381 123.332 9.21871C123.812 9.0536 124.252 8.78595 124.619 8.43428C125.472 7.3866 126.203 6.24588 126.8 5.03383C128.629 1.71705 129.609 0.95808 131.33 0.95808C131.658 0.970455 131.977 1.0672 132.256 1.23896C132.35 1.3302 132.417 1.44624 132.448 1.57363C132.381 2.39232 132.198 3.19731 131.904 3.9641C131.874 4.07764 131.683 4.13741 131.629 4.13741C131.082 3.85997 130.492 3.67806 129.884 3.59955C129.394 3.59955 128.904 3.85653 127.834 5.7689C126.693 7.77092 126.065 8.82871 125.193 9.56378C125.172 9.59275 125.162 9.62715 125.162 9.66238C125.162 9.69762 125.172 9.73201 125.193 9.76099C125.73 10.0419 126.388 10.8307 127.583 12.5459C127.71 12.7138 127.869 12.9256 128.047 13.1631C128.674 13.999 129.539 15.1533 130.093 15.8328L130.159 15.9161C130.95 16.9202 131.537 17.6664 132.561 17.6256C133.446 17.5958 133.816 16.777 134.491 15.1754C135.693 12.2172 138.352 5.13543 138.95 3.30672C139.167 2.70629 139.348 2.09368 139.494 1.47203C139.832 1.49434 140.171 1.49434 140.509 1.47203C140.874 1.49724 141.239 1.49724 141.603 1.47203C141.741 2.03379 141.902 2.57165 142.093 3.13341C142.643 4.69917 145.679 12.9463 146.743 15.4563ZM141.902 10.8307C141.986 10.8307 142.063 10.6933 142.051 10.5797C141.967 10.342 141.867 10.0604 141.758 9.75051C141.193 8.15157 140.362 5.80068 139.972 4.85455C139.966 4.85455 139.956 4.8511 139.943 4.84682C139.907 4.83421 139.85 4.81438 139.81 4.85455C139.591 5.55884 139.255 6.50749 138.908 7.49077C138.518 8.59336 138.113 9.73951 137.838 10.6335C137.832 10.6736 137.839 10.7147 137.859 10.7503C137.878 10.7859 137.909 10.8142 137.946 10.8307H141.902Z" fill="#96949E"/>
<path d="M38.466 15.2532L38.3525 15.5102C38.5229 15.7215 38.7699 15.8569 39.0397 15.8867L39.213 15.6656C40.4519 13.9726 41.0836 11.9113 41.0059 9.81489C41.0059 5.4463 38.46 2.1116 34.3664 1.11358L34.0795 1.03589C33.9038 1.24496 33.8085 1.50984 33.8106 1.78291L34.0735 1.90841C34.3119 2.0068 34.5418 2.12473 34.7608 2.261C36.9899 3.56381 38.5736 6.39054 38.9979 9.82086C39.3098 11.6466 39.1262 13.5226 38.466 15.2532Z" fill="#96949E"/>
<path d="M32.2941 19.4305C29.306 19.4305 26.9155 18.546 25.2064 16.783C23.5054 14.9599 22.5908 12.5403 22.6605 10.0479C22.6239 8.89535 22.824 7.74757 23.2485 6.67547C23.673 5.60336 24.313 4.62972 25.1287 3.81471C26.4159 2.4886 28.0565 1.55943 29.8558 1.13739L30.1367 1.06567C30.2801 1.09555 30.4833 1.66329 30.4236 1.78879L30.1666 1.92027C29.898 2.0498 29.6419 2.20384 29.4016 2.38044C27.6566 3.76093 26.8976 6.48607 27.31 9.85066C27.4619 11.0443 27.7734 12.2121 28.2363 13.3228C28.5733 14.2721 29.0976 15.1439 29.7781 15.8866C30.3499 16.6144 31.0584 17.2235 31.8638 17.6794C32.6451 18.1108 33.5177 18.3505 34.4097 18.3787H34.6965C34.8101 18.4265 34.8459 19.048 34.7563 19.1436L34.4754 19.1974C33.7577 19.3465 33.0271 19.4246 32.2941 19.4305Z" fill="#96949E"/>
<path d="M2.97855 1.44227C3.65538 1.467 4.61602 1.5021 5.81985 1.5021C7.13995 1.5021 8.00584 1.46915 8.65086 1.44461C9.03369 1.43004 9.33872 1.41844 9.61473 1.41844C9.74319 1.77573 9.73252 2.16827 9.58485 2.51805C8.98723 2.6316 8.43742 2.73917 8.11471 2.82881C7.5649 2.99615 7.40354 3.27702 7.37366 4.09576C7.3417 4.664 7.34773 5.24068 7.35788 6.21211C7.36481 6.87533 7.37366 7.72255 7.37366 8.8767C7.3764 8.94454 7.39516 9.01077 7.42839 9.06998C7.46163 9.12918 7.50841 9.17968 7.5649 9.21734H11.9873C15.5366 9.21734 16.0511 9.21734 16.2961 9.16356C16.351 9.15752 16.4016 9.13057 16.4372 9.08828C16.4728 9.046 16.4907 8.99164 16.4873 8.93647V3.73121C16.5003 3.54623 16.454 3.36192 16.3551 3.20503C16.2563 3.04814 16.11 2.92683 15.9375 2.85869C15.3586 2.6585 14.7558 2.53592 14.1447 2.49415C13.9534 2.35072 14.0072 1.53796 14.1447 1.39453C14.4206 1.39453 14.8358 1.40826 15.3298 1.42459C16.0554 1.44858 16.9513 1.4782 17.826 1.4782C18.7871 1.4782 19.8913 1.44244 20.6559 1.41768C21.0608 1.40456 21.3705 1.39453 21.5133 1.39453C21.5931 1.56685 21.6344 1.75446 21.6344 1.94434C21.6344 2.13422 21.5931 2.32183 21.5133 2.49415C20.9856 2.54079 20.4645 2.645 19.9595 2.80491C19.326 3.02603 19.2722 3.40253 19.2184 4.32286C19.1647 5.24319 19.1647 6.57588 19.1647 9.80899C19.1647 12.313 19.1647 15.2951 19.2483 16.2812C19.3021 17.0402 19.5173 17.3509 20.0671 17.5183C20.7008 17.6904 21.3489 17.8044 22.0033 17.8589C22.1109 18.0262 22.0571 18.8988 21.842 18.9824C21.5801 18.9824 21.1106 18.9691 20.5457 18.9532C19.6923 18.929 18.621 18.8988 17.7184 18.8988C16.482 18.8988 15.2984 18.9394 14.4922 18.967L14.4912 18.967C14.3197 18.9729 14.1653 18.9782 14.0311 18.9824C13.8933 18.6206 13.8933 18.2207 14.0311 17.8589C14.6242 17.8178 15.2112 17.7136 15.7821 17.5481C16.2423 17.3808 16.3798 17.07 16.4634 16.3529C16.4993 15.7714 16.4873 14.3907 16.4754 13.009C16.4694 12.3177 16.4634 11.626 16.4634 11.0341C16.4554 10.9816 16.4297 10.9335 16.3905 10.8977C16.3514 10.8618 16.3012 10.8404 16.2483 10.8369H11.9335C9.80596 10.8369 7.70235 10.8369 7.45733 10.8907C7.40354 10.8907 7.34976 11.0042 7.34976 11.0341V16.072C7.40354 17.0282 7.59478 17.3091 8.33583 17.5063C8.92441 17.6687 9.52343 17.7905 10.1287 17.8708C10.2277 18.2531 10.1786 18.6587 9.99123 19.0063C9.91051 19.0063 9.74562 19.0002 9.50493 18.9913C8.85461 18.9672 7.65091 18.9227 6.0589 18.9227C4.74197 18.9227 3.67366 18.9593 2.95095 18.9841C2.58164 18.9967 2.30241 19.0063 2.12658 19.0063C2.0009 18.6424 2.0009 18.2468 2.12658 17.8828C2.31488 17.8525 2.48784 17.8264 2.64763 17.8023C3.08622 17.7363 3.42555 17.6851 3.71027 17.6019C4.45131 17.3569 4.61267 16.9565 4.67243 15.6597C4.70231 14.7035 4.70231 12.5939 4.70231 10.1437C4.70231 7.41254 4.70231 4.65752 4.67243 4.16748C4.61864 3.37862 4.51107 3.06786 3.88357 2.87065C3.29486 2.71576 2.69566 2.6039 2.09072 2.53598C1.96193 2.17171 1.97689 1.77205 2.13255 1.41844C2.32624 1.41844 2.61042 1.42882 2.97855 1.44227Z" fill="#96949E"/>
<path d="M88.0146 13.9922C87.6671 14.8242 87.2471 15.6241 86.7596 16.3827C86.162 17.2253 85.7795 17.4524 85.0385 17.4524C83.6425 17.4906 82.2456 17.4447 80.8551 17.3149C80.6601 17.1989 80.4993 17.0332 80.3891 16.8348C80.2789 16.6364 80.2232 16.4124 80.2276 16.1854C80.1739 15.0619 80.1739 12.8687 80.1739 11.04C80.1739 10.9264 80.2515 10.8188 80.3352 10.8188C81.5902 10.8188 83.389 10.8188 84.2914 10.9025C84.4749 10.9169 84.6488 10.9905 84.7868 11.1124C84.9247 11.2342 85.0194 11.3975 85.0564 11.5778C85.1808 12.0001 85.2708 12.4318 85.3253 12.8687C85.7395 13.0241 86.196 13.0241 86.6102 12.8687C86.5803 11.9961 86.5564 11.0758 86.5564 10.1137C86.5564 9.29372 86.6372 8.47378 86.6991 7.84492C86.718 7.65333 86.7351 7.47947 86.7477 7.32876C86.3552 7.14641 85.9115 7.10627 85.4927 7.21521C85.4182 7.63323 85.3184 8.04635 85.1938 8.45228C85.1578 8.63876 85.0649 8.80952 84.9279 8.94112C84.791 9.07273 84.6167 9.15874 84.4289 9.18735C83.5023 9.27849 82.224 9.27525 80.9937 9.27213C80.7719 9.27157 80.5515 9.27101 80.3352 9.27101C80.2515 9.27101 80.1739 9.12758 80.1739 9.0738V3.58767C80.1739 3.42034 80.3412 3.02591 80.5563 2.99005C80.7245 2.96202 82.9641 2.97782 84.1303 2.98605C84.4557 2.98834 84.6975 2.99005 84.7875 2.99005C85.0849 2.97164 85.3785 3.065 85.6107 3.25185C85.8428 3.43869 85.9968 3.70553 86.0425 4.00003C86.2191 4.53717 86.3197 5.09638 86.3413 5.6614C86.7426 5.79667 87.1802 5.77532 87.5664 5.60164C87.6174 4.25094 87.7733 2.90625 88.0325 1.57967C88.0325 1.52589 87.9489 1.44222 87.8951 1.41234C87.2377 1.4721 85.7974 1.49601 84.7277 1.49601H79.2177C78.2971 1.49601 77.2904 1.46664 76.47 1.4427C75.9057 1.42624 75.4295 1.41234 75.13 1.41234C75.0416 1.57474 74.9885 1.75396 74.974 1.93828C74.9596 2.12261 74.9842 2.30791 75.0463 2.48208C75.5979 2.55245 76.1447 2.65622 76.6838 2.79284C77.2814 2.99005 77.4188 3.24105 77.4726 4.16736C77.5025 4.67533 77.5025 7.0658 77.5025 9.54592C77.5025 12.6655 77.5025 15.6237 77.4726 16.1197C77.4188 17.0221 77.1439 17.3568 76.5344 17.6018C76.131 17.7644 75.6936 17.824 75.2614 17.7751C74.0662 17.7751 73.7136 17.1237 72.9905 15.4564C71.9208 12.9523 68.8908 4.73509 68.347 3.15738C68.1454 2.61764 67.9817 2.0645 67.857 1.50198C67.4927 1.52217 67.1276 1.52217 66.7633 1.50198C66.4269 1.51989 66.0898 1.51989 65.7533 1.50198C65.6051 2.1209 65.4236 2.73136 65.2095 3.33069C64.6119 5.1594 61.9585 12.2232 60.7573 15.1755C59.9027 17.2193 59.5262 17.8229 57.9783 17.8169C57.3807 17.8169 56.1855 17.4345 56.066 16.5022C56.0062 15.3189 56.0062 9.94632 56.0062 9.94632C56.0062 7.77697 56.0062 5.35662 56.0899 4.14943C56.1735 3.13348 56.4723 2.95419 57.07 2.76893C57.529 2.65915 57.9939 2.57535 58.4624 2.51793C58.5999 2.40439 58.5999 1.47808 58.4624 1.41832C58.0875 1.41832 57.5234 1.43586 56.9118 1.45488C56.1877 1.4774 55.3971 1.50198 54.7751 1.50198C53.9498 1.50198 53.0798 1.47474 52.3327 1.45134C51.7705 1.43374 51.278 1.41832 50.9265 1.41832C50.7651 1.47808 50.7352 2.3506 50.8966 2.51793C51.4291 2.56953 51.9579 2.65335 52.4803 2.76893C53.299 2.99603 53.3289 3.24703 53.3827 4.06576C53.4237 4.90079 53.4195 6.33158 53.4152 7.78621C53.4139 8.23671 53.4125 8.6895 53.4125 9.12759C53.4125 9.27102 53.3827 9.30089 53.2452 9.35468C52.3139 9.7518 51.3114 9.95514 50.299 9.9523C48.6316 9.9523 46.5041 9.58775 46.4204 6.62954C46.4204 5.55983 46.4204 4.10158 46.4742 3.50998C46.528 2.91834 46.779 2.74503 48.1117 2.52391C48.1917 2.3482 48.2356 2.15819 48.2407 1.96518C48.2459 1.77218 48.2121 1.58011 48.1416 1.40039C48.0202 1.40039 47.7394 1.41314 47.3711 1.42986C46.6699 1.46171 45.6514 1.50796 44.8128 1.50796C44.108 1.50796 43.4087 1.48255 42.7808 1.45974C42.2693 1.44115 41.8053 1.42429 41.4243 1.42429C41.263 1.50796 41.2331 2.38048 41.3705 2.52391C41.629 2.57302 41.8584 2.61095 42.0641 2.64496C42.3339 2.68957 42.5629 2.72743 42.763 2.77491C43.5817 2.97212 43.773 3.37253 43.773 4.23907V6.34866C43.773 8.3208 44.0718 9.24711 44.4782 9.80887C45.4642 11.1655 46.9642 11.6017 49.038 11.6017C50.4883 11.5605 51.9137 11.2144 53.2213 10.5858C53.3289 10.532 53.3588 10.532 53.3588 10.6694C53.3588 11.8647 53.3588 13.8547 53.3289 15.4504C53.299 17.046 53.2452 17.4524 52.289 17.6735C51.9125 17.7572 51.3926 17.8468 50.7352 17.9305C50.5739 17.9305 50.5978 18.8568 50.7352 19.0241C51.1584 19.0241 51.7364 19.0067 52.3641 18.9877C53.1103 18.9651 53.9269 18.9405 54.6377 18.9405H60.56C61.7411 18.9405 62.7502 18.9754 63.4649 19.0001C63.8568 19.0136 64.1602 19.0241 64.3549 19.0241C64.4479 18.8535 64.503 18.6648 64.5165 18.4709C64.5299 18.277 64.5013 18.0824 64.4326 17.9006C63.947 17.8497 63.4642 17.7739 62.9864 17.6735C62.0899 17.4524 61.9525 17.0281 62.2214 16.1257C63.0402 13.4842 64.8748 8.18933 66.0462 4.87255C66.0663 4.8584 66.0903 4.85081 66.1149 4.85081C66.1395 4.85081 66.1635 4.8584 66.1836 4.87255C67.3311 7.86064 70.1697 15.8747 70.4387 16.8847C70.4888 17.0181 70.4857 17.1657 70.4301 17.2969C70.3745 17.4282 70.2706 17.533 70.1399 17.5898C69.6179 17.7557 69.0784 17.86 68.5323 17.9006C68.457 18.0783 68.4182 18.2694 68.4182 18.4624C68.4182 18.6554 68.457 18.8464 68.5323 19.0241C68.7311 19.0241 69.0945 19.013 69.5555 18.9988C70.3556 18.9741 71.4497 18.9405 72.4885 18.9405H77.7296C77.9163 18.9405 78.5276 18.9504 79.3681 18.964L79.3695 18.964C81.2197 18.994 84.1796 19.0421 86.168 19.0421C87.5604 19.0421 87.7756 18.815 87.913 18.4803C88.4602 17.1781 88.861 15.8191 89.1082 14.4285C88.7928 14.1816 88.4133 14.0302 88.0146 13.9922Z" fill="#96949E"/>
</svg>
