<svg width="20" height="12" viewBox="0 0 20 12" fill="none" xmlns="http://www.w3.org/2000/svg">
<path d="M19.27 4.25581L16.0375 1.02414C15.8812 0.867914 15.6693 0.780151 15.4483 0.780151C15.2274 0.780151 15.0154 0.867914 14.8592 1.02414C14.7029 1.18041 14.6152 1.39234 14.6152 1.61331C14.6152 1.83428 14.7029 2.0462 14.8592 2.20247L17.8217 5.16664H0.833333C0.61232 5.16664 0.400358 5.25444 0.244078 5.41072C0.0877974 5.567 0 5.77896 0 5.99997H0C0 6.22099 0.0877974 6.43295 0.244078 6.58923C0.400358 6.74551 0.61232 6.83331 0.833333 6.83331H17.8725L14.8592 9.84581C14.7817 9.9232 14.7202 10.0151 14.6783 10.1163C14.6363 10.2174 14.6148 10.3259 14.6148 10.4354C14.6148 10.5449 14.6363 10.6533 14.6783 10.7545C14.7202 10.8557 14.7817 10.9476 14.8592 11.025C15.0154 11.1812 15.2274 11.269 15.4483 11.269C15.6693 11.269 15.8812 11.1812 16.0375 11.025L19.2708 7.79247C19.7383 7.32261 20.0006 6.68675 20.0005 6.02397C20.0003 5.36119 19.7377 4.72545 19.27 4.25581Z" fill="#3B3748"/>
</svg>
